<svg id="Line_flat_icons" height="512" viewBox="0 0 64 64" width="512" xmlns="http://www.w3.org/2000/svg" data-name="Line flat icons"><path d="m8 16.12h48v31.75h-48z" fill="#faba59"/><path d="m56 16.12v31.75h-48v-1.51h46.8l-.2-30.24z" fill="#f2a846"/><path d="m8 16.12 19.53 16.36a7 7 0 0 0 8.94 0l19.53-16.36z" fill="#c1cdd3"/><path d="m8.65 18.13 19 15.92a6.77 6.77 0 0 0 8.7 0l19.49-16.21v-1.72h-47.19z" fill="#f2a846"/><path d="m10.47 18 17.53 14.65a6.25 6.25 0 0 0 8 0l17.53-14.65 2.31-1.86h-47.63z" fill="#faba59"/><g fill="#2f3a5a"><path d="m32 34.61a7.46 7.46 0 0 1 -4.79-1.74l-19.53-16.36a.52.52 0 0 1 -.15-.51.5.5 0 0 1 .47-.38h48a.5.5 0 0 1 .47.33.52.52 0 0 1 -.15.56l-19.53 16.36a7.44 7.44 0 0 1 -4.79 1.74zm-22.62-18 18.47 15.49a6.47 6.47 0 0 0 8.3 0l18.47-15.48z"/><path d="m56 48.38a.51.51 0 0 1 -.31-.11l-19.39-15.51a.49.49 0 0 1 -.08-.7.5.5 0 0 1 .7-.08l19.39 15.51a.49.49 0 0 1 .08.7.51.51 0 0 1 -.39.19z"/><path d="m8 48.38a.51.51 0 0 1 -.39-.19.49.49 0 0 1 .08-.7l19.39-15.49a.5.5 0 0 1 .7.08.49.49 0 0 1 -.08.7l-19.39 15.49a.51.51 0 0 1 -.31.11z"/><path d="m56 48.37h-48a.5.5 0 0 1 -.5-.5v-31.75a.5.5 0 0 1 .5-.5h48a.5.5 0 0 1 .5.5v31.75a.5.5 0 0 1 -.5.5zm-47.5-1h47v-30.75h-47z"/></g></svg>