<svg height="511pt" viewBox="0 -19 511.99981 511" width="511pt" xmlns="http://www.w3.org/2000/svg"><g fill-rule="evenodd"><path d="m90.402344 294.019531h331.195312l80.402344 168.738281h-492zm0 0" fill="#fec96b"/><path d="m256 10.5c62.78125 0 113.675781 50.894531 113.675781 113.675781 0 16.25-3.417969 31.703125-9.566406 45.6875l-104.109375 208.527344-104.113281-208.527344c-6.144531-13.984375-9.5625-29.4375-9.5625-45.6875 0-62.78125 50.894531-113.675781 113.675781-113.675781zm0 0" fill="#ff5d5d"/><path d="m256 186.785156c34.484375 0 62.609375-28.125 62.609375-62.609375s-28.125-62.613281-62.609375-62.613281-62.609375 28.128906-62.609375 62.613281 28.125 62.609375 62.609375 62.609375zm0 0" fill="#a0e557"/><path d="m511.027344 458.453125-80.40625-168.734375c-1.65625-3.480469-5.167969-5.699219-9.023438-5.699219h-107.304687l54.765625-109.691406c.074218-.144531.140625-.292969.207031-.441406 6.90625-15.714844 10.410156-32.441407 10.410156-49.710938 0-68.195312-55.480469-123.675781-123.675781-123.675781s-123.675781 55.480469-123.675781 123.675781c0 17.269531 3.5 33.992188 10.40625 49.710938.066406.148437.136719.296875.210937.441406l54.765625 109.691406h-107.304687c-3.855469 0-7.367188 2.21875-9.027344 5.699219l-80.402344 168.734375c-1.476562 3.101563-1.261718 6.738281.570313 9.640625s5.023437 4.664062 8.457031 4.664062h206c5.523438 0 10-4.476562 10-10 0-5.523437-4.476562-10-10-10h-190.15625l70.875-148.738281h110.972656l39.363282 78.835938c1.691406 3.390625 5.15625 5.535156 8.945312 5.535156s7.253906-2.144531 8.945312-5.535156l39.359376-78.835938h110.976562l70.875 148.738281h-190.15625c-5.523438 0-10 4.476563-10 10 0 5.523438 4.476562 10 10 10h206c3.433594 0 6.625-1.761718 8.457031-4.664062s2.046875-6.539062.570313-9.640625zm-255.027344-102.453125-95.054688-190.382812c-5.71875-13.101563-8.621093-27.042969-8.621093-41.441407 0-57.167969 46.507812-103.675781 103.675781-103.675781 57.164062 0 103.675781 46.507812 103.675781 103.675781 0 14.402344-2.902343 28.34375-8.621093 41.445313zm0 0"/><path d="m256 51.5625c-40.035156 0-72.609375 32.574219-72.609375 72.609375 0 40.039063 32.574219 72.609375 72.609375 72.609375s72.609375-32.570312 72.609375-72.609375c0-40.035156-32.574219-72.609375-72.609375-72.609375zm0 125.222656c-29.011719 0-52.609375-23.601562-52.609375-52.609375 0-29.011719 23.601563-52.613281 52.609375-52.613281s52.609375 23.601562 52.609375 52.613281c0 29.007813-23.601563 52.609375-52.609375 52.609375zm0 0"/><path d="m256 452.757812c-5.507812 0-10 4.492188-10 10 0 5.507813 4.492188 10 10 10s10-4.492187 10-10c0-5.507812-4.492188-10-10-10zm0 0"/></g></svg>